<svg id="visual" viewBox="0 0 900 135" width="900" height="135" xmlns="http://www.w3.org/2000/svg" xmlns:xlink="http://www.w3.org/1999/xlink" version="1.1"><rect x="0" y="0" width="900" height="135" fill="#ffffff"></rect><path d="M0 23L21.5 32.3C43 41.7 86 60.3 128.8 67.8C171.7 75.3 214.3 71.7 257.2 68.5C300 65.3 343 62.7 385.8 55.5C428.7 48.3 471.3 36.7 514.2 34.3C557 32 600 39 642.8 45.7C685.7 52.3 728.3 58.7 771.2 59.2C814 59.7 857 54.3 878.5 51.7L900 49L900 136L878.5 136C857 136 814 136 771.2 136C728.3 136 685.7 136 642.8 136C600 136 557 136 514.2 136C471.3 136 428.7 136 385.8 136C343 136 300 136 257.2 136C214.3 136 171.7 136 128.8 136C86 136 43 136 21.5 136L0 136Z" fill="#000000" stroke-linecap="round" stroke-linejoin="miter"></path></svg>